Coordinates
version=1
nRows=10
nColumns=46
inDegrees=yes

Units are S.I. units (second, meters, Newtons, ...)
Angles are in degrees.

endheader
time	pelvis_tilt	pelvis_list	pelvis_rotation	pelvis_tx	pelvis_ty	pelvis_tz	bb_angle	bb_tx	bb_ty	bb_tz	hip_flexion_r	hip_adduction_r	hip_rotation_r	knee_angle_r	knee_angle_r_beta	ankle_angle_r	subtalar_angle_r	mtp_angle_r	crank_angle_r	hip_flexion_l	hip_adduction_l	hip_rotation_l	knee_angle_l	knee_angle_l_beta	ankle_angle_l	subtalar_angle_l	mtp_angle_l	crank_angle_l	lumbar_extension	lumbar_bending	lumbar_rotation	arm_flex_r	arm_add_r	arm_rot_r	elbow_flex_r	pro_sup_r	wrist_flex_r	wrist_dev_r	arm_flex_l	arm_add_l	arm_rot_l	elbow_flex_l	pro_sup_l	wrist_flex_l	wrist_dev_l
      7.50000000	     -5.96963323	     -0.50635194	      7.23619112	      0.08516195	      1.16523280	     -0.25459592	      0.00000000	      0.50000000	      0.00000000	      0.25000000	     68.40559964	     -4.34423409	      7.15929350	    103.86378104	      1.81276495	    -37.01664167	     -7.40086663	      0.00000000	      0.00000000	     36.03293838	     -0.48434854	      0.77036713	     35.37086505	      0.61733805	      8.37893223	      1.50289242	      0.00000000	      0.00000000	    -68.03673846	      4.91419466	      1.10130193	     89.03790675	    -32.98540181	     49.79201162	     64.88664975	     47.97947457	      0.00000000	      0.00000000	     89.46963858	    -19.08872077	     47.10536806	     55.17391450	     28.69179600	      0.00000000	      0.00000000
      7.50500000	     -6.02708965	     -1.43131852	      6.84559678	      0.08606080	      1.16491823	     -0.25621741	      0.00000000	      0.50000000	      0.00000000	      0.25000000	     69.78924331	     -3.66858119	      6.68116163	    105.05389422	      1.83353635	    -36.25378390	     -7.47435344	      0.00000000	      0.00000000	     34.83278794	     -1.64795637	      0.70807766	     33.87488601	      0.59122829	      8.48227172	      0.77023164	      0.00000000	      0.00000000	    -67.83279230	      5.50921184	      1.85480721	     89.10402189	    -32.59598034	     49.78940663	     64.77127694	     47.93651556	      0.00000000	      0.00000000	     89.36290428	    -19.52968514	     47.06811948	     55.06061624	     28.70637750	      0.00000000	      0.00000000
      7.51000000	     -6.00065357	     -2.38839113	      6.37693062	      0.08692981	      1.16498867	     -0.25774922	      0.00000000	      0.50000000	      0.00000000	      0.25000000	     71.02674216	     -2.89482098	      6.18695932	    106.12271236	      1.85219074	    -35.17770804	     -7.39575842	      0.00000000	      0.00000000	     33.54657941	     -2.83704389	      0.55501789	     32.33144777	      0.56429022	      7.70271145	      1.06329540	      0.00000000	      0.00000000	    -67.77404289	      6.02938330	      2.62940944	     89.17692508	    -32.09877056	     49.67328121	     64.60560241	     47.86395930	      0.00000000	      0.00000000	     89.23831084	    -20.00344759	     47.07651530	     54.91855938	     28.74721500	      0.00000000	      0.00000000
      7.51500000	     -5.83044735	     -3.27371406	      5.85946204	      0.08790378	      1.16545410	     -0.25920982	      0.00000000	      0.50000000	      0.00000000	      0.25000000	     72.05246769	     -2.12705694	      5.74120512	    107.09947116	      1.86923840	    -33.87766633	     -7.21920333	      0.00000000	      0.00000000	     32.11563657	     -4.06614120	      0.09545061	     30.89958823	      0.53929955	      6.93169803	      1.81882890	      0.00000000	      0.00000000	    -67.87711652	      6.46986150	      3.28464761	     89.20897760	    -31.51332848	     49.50619463	     64.37479779	     47.76884917	      0.00000000	      0.00000000	     89.09579834	    -20.56460921	     47.21024320	     54.72380807	     28.78464918	      0.00000000	      0.00000000
      7.52000000	     -5.21471404	     -3.90651685	      5.08578565	      0.08908365	      1.16655656	     -0.25984308	      0.00000000	      0.50000000	      0.00000000	      0.25000000	     72.56850448	     -1.11801537	      5.63431449	    108.04272365	      1.88570126	    -32.19668223	     -6.29718406	      0.00000000	      0.00000000	     30.23355201	     -5.48210921	     -1.49015559	     29.79678670	      0.52005203	      6.86772617	      4.12893551	      0.00000000	      0.00000000	    -68.39844582	      6.76451660	      2.20361334	     89.27494991	    -27.20629462	     48.94597869	     62.29800260	     39.38371953	      0.00000000	      0.00000000	     88.95645308	    -24.16157724	     47.09782312	     53.47695034	     43.70478835	      0.00000000	      0.00000000
      7.52500000	     -4.99436258	     -4.56143539	      4.56467501	      0.08997984	      1.16713798	     -0.26094242	      0.00000000	      0.50000000	      0.00000000	      0.25000000	     73.50703183	     -0.44308258	      5.36265493	    108.87780222	      1.90027613	    -30.84422171	     -5.93932637	      0.00000000	      0.00000000	     28.86402949	     -6.54044425	     -2.36725588	     28.77671734	      0.50224847	      6.34381336	      5.16522174	      0.00000000	      0.00000000	    -68.62951140	      7.06795445	      2.67770575	     89.31453254	    -26.59956625	     48.71976445	     62.25181594	     39.34718140	      0.00000000	      0.00000000	     88.78710633	    -24.76824840	     47.06520080	     53.33257528	     43.70066349	      0.00000000	      0.00000000
      7.53000000	     -5.05601634	     -5.15723122	      4.21509812	      0.09053578	      1.16727704	     -0.26256791	      0.00000000	      0.50000000	      0.00000000	      0.25000000	     74.75101523	     -0.07470789	      5.05427944	    109.62027489	      1.91323472	    -29.65756077	     -6.16783531	      0.00000000	      0.00000000	     27.90912393	     -7.26516135	     -2.65403598	     27.93434369	      0.48754627	      5.92586050	      5.66163309	      0.00000000	      0.00000000	    -68.57338608	      7.50141757	      3.12680320	     89.35164523	    -26.25425530	     48.58377504	     62.19612590	     39.31822239	      0.00000000	      0.00000000	     88.57566090	    -25.23715905	     46.99337455	     53.24151143	     43.69066638	      0.00000000	      0.00000000
      7.53500000	     -5.04482612	     -5.75834595	      3.74769834	      0.09108762	      1.16774126	     -0.26391054	      0.00000000	      0.50000000	      0.00000000	      0.25000000	     75.82778355	      0.43122563	      4.69208446	    110.14745925	      1.92243583	    -28.63423198	     -6.05399096	      0.00000000	      0.00000000	     26.93279164	     -8.09532039	     -3.23886280	     27.26238059	      0.47581830	      5.35133096	      6.22133176	      0.00000000	      0.00000000	    -68.62446981	      7.85508035	      3.50871715	     89.39107219	    -25.64353822	     48.39653522	     62.13320228	     39.27802031	      0.00000000	      0.00000000	     88.31043452	    -25.84299737	     46.93232156	     53.13579475	     43.68663893	      0.00000000	      0.00000000
      7.54000000	     -4.84689778	     -6.19615292	      3.10576987	      0.09163635	      1.16834881	     -0.26459997	      0.00000000	      0.50000000	      0.00000000	      0.25000000	     76.68636519	      1.15449890	      4.62431967	    110.64108565	      1.93105123	    -27.30279015	     -5.68005612	      0.00000000	      0.00000000	     25.87943913	     -9.02127556	     -4.53501606	     27.03389838	      0.47183054	      5.32458837	      7.56744831	      0.00000000	      0.00000000	    -68.90330145	      8.20407479	      1.90013802	     89.45172436	    -20.93811362	     46.83418633	     59.09792750	     38.37838740	      0.00000000	      0.00000000	     87.65899893	    -30.06999104	     47.26496987	     55.74929347	     44.61385852	      0.00000000	      0.00000000
      7.54500000	     -4.95204464	     -6.62610952	      2.67821047	      0.09173928	      1.16869980	     -0.26585712	      0.00000000	      0.50000000	      0.00000000	      0.25000000	     77.78388339	      1.54348775	      4.38764618	    110.92220396	      1.93595767	    -26.43027246	     -5.66398871	      0.00000000	      0.00000000	     25.26824385	     -9.57731467	     -4.85834585	     26.85704123	      0.46874380	      4.89457570	      7.51472014	      0.00000000	      0.00000000	    -68.90228257	      8.47155559	      2.20796784	     89.48375430	    -20.48656041	     46.78741431	     59.25658725	     38.37952180	      0.00000000	      0.00000000	     87.42842726	    -30.53166531	     47.20397059	     55.63399338	     44.62131626	      0.00000000	      0.00000000
